HIERARCHY
ROOT Hips
{
	OFFSET -395.419647 -566.670227 89.000702
	CHANNELS 6 Xposition Yposition Zposition Zrotation Yrotation Xrotation
	JOINT Spine
	{
		OFFSET 0.000000 2.080078 8.814247
		CHANNELS 6 Xposition Yposition Zposition Zrotation Yrotation Xrotation
		JOINT Spine1
		{
			OFFSET 0.000000 0.000000 8.844139
			CHANNELS 6 Xposition Yposition Zposition Zrotation Yrotation Xrotation
			JOINT Spine2
			{
				OFFSET 0.000000 0.000000 11.682266
				CHANNELS 6 Xposition Yposition Zposition Zrotation Yrotation Xrotation
				JOINT Spine3
				{
					OFFSET 0.000000 0.000000 11.746704
					CHANNELS 6 Xposition Yposition Zposition Zrotation Yrotation Xrotation
					JOINT Neck
					{
						OFFSET 0.000000 0.000000 17.658264
						CHANNELS 6 Xposition Yposition Zposition Zrotation Yrotation Xrotation
						JOINT Neck1
						{
							OFFSET 0.000000 0.000000 5.101517
							CHANNELS 6 Xposition Yposition Zposition Zrotation Yrotation Xrotation
							JOINT Head
							{
								OFFSET 0.000000 0.000000 5.101517
								CHANNELS 6 Xposition Yposition Zposition Zrotation Yrotation Xrotation
								JOINT HeadEnd
								{
									OFFSET 0.000000 0.000000 11.655090
									CHANNELS 6 Xposition Yposition Zposition Zrotation Yrotation Xrotation
									End Site
									{
										OFFSET 0.000000 0.000000 0.100006
									}
								}
							}
						}
					}
					JOINT RightShoulder
					{
						OFFSET -2.625397 0.000000 11.175217
						CHANNELS 6 Xposition Yposition Zposition Zrotation Yrotation Xrotation
						JOINT RightArm
						{
							OFFSET 0.000000 0.000000 10.434708
							CHANNELS 6 Xposition Yposition Zposition Zrotation Yrotation Xrotation
							JOINT RightForeArm
							{
								OFFSET 0.000000 0.000000 29.628418
								CHANNELS 6 Xposition Yposition Zposition Zrotation Yrotation Xrotation
								JOINT RightHand
								{
									OFFSET 0.000000 0.000000 22.857605
									CHANNELS 6 Xposition Yposition Zposition Zrotation Yrotation Xrotation
									JOINT RightHandThumb1
									{
										OFFSET -2.867310 -2.944275 3.959564
										CHANNELS 6 Xposition Yposition Zposition Zrotation Yrotation Xrotation
										JOINT RightHandThumb2
										{
											OFFSET 0.000000 0.000000 3.350403
											CHANNELS 6 Xposition Yposition Zposition Zrotation Yrotation Xrotation
											JOINT RightHandThumb3
											{
												OFFSET 0.000000 0.000000 3.756516
												CHANNELS 6 Xposition Yposition Zposition Zrotation Yrotation Xrotation
												JOINT RightHandThumb4
												{
													OFFSET 0.000000 0.000000 3.147339
													CHANNELS 6 Xposition Yposition Zposition Zrotation Yrotation Xrotation
													End Site
													{
														OFFSET 0.000000 0.000000 0.100006
													}
												}
											}
										}
									}
									JOINT RightHandIndex1
									{
										OFFSET -0.086761 -2.345276 10.030899
										CHANNELS 6 Xposition Yposition Zposition Zrotation Yrotation Xrotation
										JOINT RightHandIndex2
										{
											OFFSET 0.000000 0.000000 4.061096
											CHANNELS 6 Xposition Yposition Zposition Zrotation Yrotation Xrotation
											JOINT RightHandIndex3
											{
												OFFSET 0.000000 0.000000 3.248871
												CHANNELS 6 Xposition Yposition Zposition Zrotation Yrotation Xrotation
												JOINT RightHandIndex4
												{
													OFFSET 0.000000 0.000000 2.639709
													CHANNELS 6 Xposition Yposition Zposition Zrotation Yrotation Xrotation
													End Site
													{
														OFFSET 0.000000 0.000000 0.100006
													}
												}
											}
										}
									}
									JOINT RightHandMiddle1
									{
										OFFSET 0.104095 -0.006775 9.502945
										CHANNELS 6 Xposition Yposition Zposition Zrotation Yrotation Xrotation
										JOINT RightHandMiddle2
										{
											OFFSET 0.000000 0.000000 4.568726
											CHANNELS 6 Xposition Yposition Zposition Zrotation Yrotation Xrotation
											JOINT RightHandMiddle3
											{
												OFFSET 0.000000 0.000000 3.654984
												CHANNELS 6 Xposition Yposition Zposition Zrotation Yrotation Xrotation
												JOINT RightHandMiddle4
												{
													OFFSET 0.000000 0.000000 2.741241
													CHANNELS 6 Xposition Yposition Zposition Zrotation Yrotation Xrotation
													End Site
													{
														OFFSET 0.000000 0.000000 0.100006
													}
												}
											}
										}
									}
									JOINT RightHandRing1
									{
										OFFSET 0.086761 2.267456 8.921707
										CHANNELS 6 Xposition Yposition Zposition Zrotation Yrotation Xrotation
										JOINT RightHandRing2
										{
											OFFSET 0.000000 0.000000 4.061096
											CHANNELS 6 Xposition Yposition Zposition Zrotation Yrotation Xrotation
											JOINT RightHandRing3
											{
												OFFSET 0.000000 0.000000 3.654984
												CHANNELS 6 Xposition Yposition Zposition Zrotation Yrotation Xrotation
												JOINT RightHandRing4
												{
													OFFSET 0.000000 0.000000 2.741241
													CHANNELS 6 Xposition Yposition Zposition Zrotation Yrotation Xrotation
													End Site
													{
														OFFSET 0.000000 0.000000 0.100006
													}
												}
											}
										}
									}
									JOINT RightHandPinky1
									{
										OFFSET -0.173492 4.467224 7.976990
										CHANNELS 6 Xposition Yposition Zposition Zrotation Yrotation Xrotation
										JOINT RightHandPinky2
										{
											OFFSET 0.000000 0.000000 3.350403
											CHANNELS 6 Xposition Yposition Zposition Zrotation Yrotation Xrotation
											JOINT RightHandPinky3
											{
												OFFSET 0.000000 0.000000 2.842758
												CHANNELS 6 Xposition Yposition Zposition Zrotation Yrotation Xrotation
												JOINT RightHandPinky4
												{
													OFFSET 0.000000 0.000000 2.639709
													CHANNELS 6 Xposition Yposition Zposition Zrotation Yrotation Xrotation
													End Site
													{
														OFFSET 0.000000 0.000000 0.100006
													}
												}
											}
										}
									}
									JOINT RightForeArmEnd
									{
										OFFSET 0.000000 0.000000 0.000000
										CHANNELS 6 Xposition Yposition Zposition Zrotation Yrotation Xrotation
										End Site
										{
											OFFSET 0.000000 0.000000 0.100006
										}
									}
								}
								JOINT RightArmEnd
								{
									OFFSET 0.000000 0.000000 0.000000
									CHANNELS 6 Xposition Yposition Zposition Zrotation Yrotation Xrotation
									End Site
									{
										OFFSET 0.000000 0.000000 0.100006
									}
								}
							}
						}
					}
					JOINT LeftShoulder
					{
						OFFSET 2.625397 0.000000 11.175217
						CHANNELS 6 Xposition Yposition Zposition Zrotation Yrotation Xrotation
						JOINT LeftArm
						{
							OFFSET 0.000000 0.000000 10.813629
							CHANNELS 6 Xposition Yposition Zposition Zrotation Yrotation Xrotation
							JOINT LeftForeArm
							{
								OFFSET 0.000000 0.000000 28.724777
								CHANNELS 6 Xposition Yposition Zposition Zrotation Yrotation Xrotation
								JOINT LeftHand
								{
									OFFSET 0.644379 0.328857 25.716171
									CHANNELS 6 Xposition Yposition Zposition Zrotation Yrotation Xrotation
									JOINT LeftHandThumb1
									{
										OFFSET 2.867310 -2.944275 3.959564
										CHANNELS 6 Xposition Yposition Zposition Zrotation Yrotation Xrotation
										JOINT LeftHandThumb2
										{
											OFFSET 0.000000 0.000000 3.350403
											CHANNELS 6 Xposition Yposition Zposition Zrotation Yrotation Xrotation
											JOINT LeftHandThumb3
											{
												OFFSET 0.000000 0.000000 3.756516
												CHANNELS 6 Xposition Yposition Zposition Zrotation Yrotation Xrotation
												JOINT LeftHandThumb4
												{
													OFFSET 0.000000 0.000000 3.100006
													CHANNELS 6 Xposition Yposition Zposition Zrotation Yrotation Xrotation
													End Site
													{
														OFFSET 0.000000 0.000000 0.100006
													}
												}
											}
										}
									}
									JOINT LeftHandIndex1
									{
										OFFSET 0.086761 -2.345276 10.030899
										CHANNELS 6 Xposition Yposition Zposition Zrotation Yrotation Xrotation
										JOINT LeftHandIndex2
										{
											OFFSET 0.000000 0.000000 4.061096
											CHANNELS 6 Xposition Yposition Zposition Zrotation Yrotation Xrotation
											JOINT LeftHandIndex3
											{
												OFFSET 0.000000 0.000000 3.248871
												CHANNELS 6 Xposition Yposition Zposition Zrotation Yrotation Xrotation
												JOINT LeftHandIndex4
												{
													OFFSET 0.000000 0.000000 2.639709
													CHANNELS 6 Xposition Yposition Zposition Zrotation Yrotation Xrotation
													End Site
													{
														OFFSET 0.000000 0.000000 0.100006
													}
												}
											}
										}
									}
									JOINT LeftHandMiddle1
									{
										OFFSET -0.104095 -0.006775 9.502945
										CHANNELS 6 Xposition Yposition Zposition Zrotation Yrotation Xrotation
										JOINT LeftHandMiddle2
										{
											OFFSET 0.000000 0.000000 4.568726
											CHANNELS 6 Xposition Yposition Zposition Zrotation Yrotation Xrotation
											JOINT LeftHandMiddle3
											{
												OFFSET 0.000000 0.000000 3.654984
												CHANNELS 6 Xposition Yposition Zposition Zrotation Yrotation Xrotation
												JOINT LeftHandMiddle4
												{
													OFFSET 0.000000 0.000000 2.741241
													CHANNELS 6 Xposition Yposition Zposition Zrotation Yrotation Xrotation
													End Site
													{
														OFFSET 0.000000 0.000000 0.100006
													}
												}
											}
										}
									}
									JOINT LeftHandRing1
									{
										OFFSET -0.086761 2.267456 8.921707
										CHANNELS 6 Xposition Yposition Zposition Zrotation Yrotation Xrotation
										JOINT LeftHandRing2
										{
											OFFSET 0.000000 0.000000 4.061096
											CHANNELS 6 Xposition Yposition Zposition Zrotation Yrotation Xrotation
											JOINT LeftHandRing3
											{
												OFFSET 0.000000 0.000000 3.654984
												CHANNELS 6 Xposition Yposition Zposition Zrotation Yrotation Xrotation
												JOINT LeftHandRing4
												{
													OFFSET 0.000000 0.000000 2.741241
													CHANNELS 6 Xposition Yposition Zposition Zrotation Yrotation Xrotation
													End Site
													{
														OFFSET 0.000000 0.000000 0.100006
													}
												}
											}
										}
									}
									JOINT LeftHandPinky1
									{
										OFFSET 0.173492 4.467224 7.976990
										CHANNELS 6 Xposition Yposition Zposition Zrotation Yrotation Xrotation
										JOINT LeftHandPinky2
										{
											OFFSET 0.000000 0.000000 3.350403
											CHANNELS 6 Xposition Yposition Zposition Zrotation Yrotation Xrotation
											JOINT LeftHandPinky3
											{
												OFFSET 0.000000 0.000000 2.842758
												CHANNELS 6 Xposition Yposition Zposition Zrotation Yrotation Xrotation
												JOINT LeftHandPinky4
												{
													OFFSET 0.000000 0.000000 2.639709
													CHANNELS 6 Xposition Yposition Zposition Zrotation Yrotation Xrotation
													End Site
													{
														OFFSET 0.000000 0.000000 0.100006
													}
												}
											}
										}
									}
									JOINT LeftForeArmEnd
									{
										OFFSET 0.000000 0.000000 0.000000
										CHANNELS 6 Xposition Yposition Zposition Zrotation Yrotation Xrotation
										End Site
										{
											OFFSET 0.000000 0.000000 0.100006
										}
									}
								}
								JOINT LeftArmEnd
								{
									OFFSET 0.000000 0.000000 0.000000
									CHANNELS 6 Xposition Yposition Zposition Zrotation Yrotation Xrotation
									End Site
									{
										OFFSET 0.000000 0.000000 0.100006
									}
								}
							}
						}
					}
				}
			}
		}
	}
	JOINT RightUpLeg
	{
		OFFSET -11.289948 0.000000 0.000000
		CHANNELS 6 Xposition Yposition Zposition Zrotation Yrotation Xrotation
		JOINT RightLeg
		{
			OFFSET 0.000000 0.000000 -38.200329
			CHANNELS 6 Xposition Yposition Zposition Zrotation Yrotation Xrotation
			JOINT RightFoot
			{
				OFFSET 0.000000 0.000000 -39.900856
				CHANNELS 6 Xposition Yposition Zposition Zrotation Yrotation Xrotation
				JOINT RightToeBase
				{
					OFFSET 0.000000 -15.261658 0.000001
					CHANNELS 6 Xposition Yposition Zposition Zrotation Yrotation Xrotation
					JOINT RightToeBaseEnd
					{
						OFFSET 0.000000 -7.370728 0.000001
						CHANNELS 6 Xposition Yposition Zposition Zrotation Yrotation Xrotation
						End Site
						{
							OFFSET 0.000000 0.000000 0.100000
						}
					}
				}
				JOINT RightLegEnd
				{
					OFFSET 0.000000 0.000000 0.000000
					CHANNELS 6 Xposition Yposition Zposition Zrotation Yrotation Xrotation
					End Site
					{
						OFFSET 0.000000 0.000000 0.100000
					}
				}
			}
			JOINT RightUpLegEnd
			{
				OFFSET 0.000000 0.000000 0.000000
				CHANNELS 6 Xposition Yposition Zposition Zrotation Yrotation Xrotation
				End Site
				{
					OFFSET 0.000000 0.000000 0.099998
				}
			}
		}
	}
	JOINT LeftUpLeg
	{
		OFFSET 11.315674 0.000000 0.000000
		CHANNELS 6 Xposition Yposition Zposition Zrotation Yrotation Xrotation
		JOINT LeftLeg
		{
			OFFSET 0.000000 0.000000 -38.200329
			CHANNELS 6 Xposition Yposition Zposition Zrotation Yrotation Xrotation
			JOINT LeftFoot
			{
				OFFSET 0.000000 0.000000 -39.900856
				CHANNELS 6 Xposition Yposition Zposition Zrotation Yrotation Xrotation
				JOINT LeftToeBase
				{
					OFFSET 0.000000 -15.261658 0.000001
					CHANNELS 6 Xposition Yposition Zposition Zrotation Yrotation Xrotation
					JOINT LeftToeBaseEnd
					{
						OFFSET 0.000000 -7.539978 0.000001
						CHANNELS 6 Xposition Yposition Zposition Zrotation Yrotation Xrotation
						End Site
						{
							OFFSET 0.000000 0.000000 0.100000
						}
					}
				}
				JOINT LeftLegEnd
				{
					OFFSET 0.000000 0.000000 0.000000
					CHANNELS 6 Xposition Yposition Zposition Zrotation Yrotation Xrotation
					End Site
					{
						OFFSET 0.000000 0.000000 0.100000
					}
				}
			}
			JOINT LeftUpLegEnd
			{
				OFFSET 0.000000 0.000000 0.000000
				CHANNELS 6 Xposition Yposition Zposition Zrotation Yrotation Xrotation
				End Site
				{
					OFFSET 0.000000 0.000000 0.099998
				}
			}
		}
	}
}
MOTION
Frames: 2
Frame Time: 0.016667
-12.517700 -22.628662 88.050903 7.755415 0.733746 -18.583210 0.000001 2.080062 8.814232 -2.297197 -4.783647 11.858767 0.000006 -0.000010 8.844130 -0.474527 0.905081 4.935799 0.000005 -0.000008 11.682276 -8.688304 -1.936972 10.339676 0.000019 -0.000075 11.746700 -3.693179 -1.431276 5.186581 0.000006 0.000014 17.658281 2.284340 -3.273243 9.656749 -0.000006 0.000022 5.101533 4.418541 1.043424 -0.374117 0.000012 0.000009 5.101547 -1.644675 4.498500 -12.275919 0.000000 0.000001 11.655117 0.000000 -0.000000 0.000000 -2.625402 0.000002 11.175234 10.328385 -94.040865 0.421903 0.000000 -0.000004 10.434723 -53.064672 -31.966686 50.609028 0.000038 0.000069 29.628441 16.359775 0.457642 48.344533 -0.000046 0.000034 22.857559 34.008267 -23.637154 -1.159316 -2.867306 -2.944244 3.959564 32.727627 -27.177447 37.651452 -0.000008 0.000015 3.350441 -34.514821 10.148808 -58.095479 0.000008 0.000015 3.756508 -23.028167 10.922400 -39.716047 0.000009 -0.000022 3.147346 0.000003 0.000001 -0.000000 -0.086757 -2.345267 10.030928 75.258221 -109.115482 -75.142511 0.000008 0.000017 4.061089 -10.844756 -65.156344 17.671001 0.000000 -0.000025 3.248840 -11.344720 -65.156296 17.670956 0.000015 -0.000005 2.639728 0.000001 0.000000 0.000000 0.104082 -0.006780 9.502934 -91.412622 -76.508303 94.730776 -0.000006 0.000008 4.568726 -3.169709 -63.217417 5.959645 -0.000027 0.000019 3.655012 -3.669747 -63.217417 5.959693 -0.000013 0.000007 2.741255 -0.000001 -0.000001 0.000001 0.086739 2.267448 8.921680 82.073233 -95.601406 -73.723102 -0.000006 -0.000008 4.061090 3.193463 -62.869576 -6.855508 -0.000019 -0.000020 3.654984 4.193452 -62.869535 -6.855497 0.000009 -0.000014 2.741257 0.000002 -0.000001 0.000001 -0.173522 4.467287 7.976972 62.723519 -87.292925 -44.767710 0.000008 -0.000021 3.350395 7.879678 -57.631094 -17.858175 0.000004 0.000019 2.842743 9.879688 -57.631087 -17.858194 0.000001 -0.000003 2.639709 0.000000 0.000000 -0.000000 -0.000020 0.000043 0.000015 0.000003 -0.000000 -0.000001 0.000009 -0.000012 -0.000011 0.000002 0.000001 0.000002 2.625412 0.000013 11.175266 -10.756949 90.747819 0.452552 0.000004 -0.000002 10.813610 41.518060 58.470606 42.216501 -0.000015 0.000031 28.724812 -11.022875 0.846055 41.828898 0.644371 0.328875 25.716179 -25.884969 14.090992 -11.084687 2.867326 -2.944290 3.959579 -32.175717 25.238930 40.247907 -0.000023 0.000015 3.350418 30.377348 -10.848203 -51.440111 -0.000015 0.000008 3.756500 20.135442 -10.543029 -35.080586 -0.000010 -0.000003 3.100001 -0.000000 -0.000001 0.000003 0.086784 -2.345248 10.030910 4.596573 74.165384 -3.038425 0.000008 -0.000004 4.061111 -4.609489 52.149437 -10.419547 0.000000 0.000027 3.248863 -5.109493 52.149451 -10.419536 -0.000002 0.000012 2.639720 -0.000002 0.000001 -0.000000 -0.104099 -0.006769 9.502956 19.710165 71.725019 15.959563 0.000004 -0.000006 4.568729 -1.281478 51.107529 -3.724949 0.000024 0.000024 3.654968 -1.781496 51.107502 -3.724968 0.000010 -0.000003 2.741246 -0.000000 -0.000001 -0.000001 -0.086757 2.267434 8.921730 46.959350 70.353899 48.351958 0.000013 0.000012 4.061102 1.402033 53.580297 4.755228 0.000026 0.000000 3.654989 2.402035 53.580283 4.755226 -0.000011 0.000011 2.741244 -0.000001 -0.000001 0.000001 0.173504 4.467278 7.977009 54.613916 62.074132 62.732808 0.000015 0.000023 3.350418 4.912708 51.656048 14.225599 0.000019 0.000019 2.842766 6.912692 51.656038 14.225588 -0.000002 -0.000001 2.639693 0.000000 -0.000001 0.000001 0.000003 0.000004 0.000010 0.000000 0.000000 0.000001 -0.000025 -0.000015 0.000001 0.000001 -0.000001 0.000001 -11.290012 -0.000015 0.000008 -18.730612 6.477378 22.613889 -0.000045 0.000015 -38.200333 -0.995238 0.096629 5.258085 -0.000037 -0.000038 -39.900845 -17.467731 -1.753152 16.626765 0.000002 -15.261700 0.000013 1.836132 1.170240 -15.333969 -0.000017 -7.370669 0.000001 0.000000 0.000001 0.000001 -0.000011 0.000010 0.000002 -0.000001 0.000000 0.000004 -0.000002 -0.000003 0.000006 0.000000 -0.000000 0.000000 11.315622 -0.000062 0.000008 -7.559032 -17.469488 10.886808 -0.000005 -0.000061 -38.200321 1.611749 -0.547238 18.749358 -0.000001 0.000013 -39.900848 8.009216 5.131359 31.234240 -0.000025 -15.261668 0.000014 -1.004737 -1.613870 -20.433032 0.000004 -7.539980 0.000001 0.000000 0.000000 0.000001 0.000009 -0.000002 -0.000002 0.000000 0.000000 -0.000001 0.000004 0.000003 0.000010 -0.000000 0.000000 0.000000 
-12.483032 -22.782593 88.085648 7.133747 0.658407 -18.065077 -0.000007 2.080065 8.814236 -2.348573 -4.761526 11.685250 -0.000002 -0.000032 8.844136 -0.532580 0.995246 4.903013 -0.000014 -0.000002 11.682276 -9.235585 -2.169597 9.980671 0.000030 -0.000021 11.746717 -3.905897 -1.607231 5.034710 -0.000005 0.000017 17.658291 2.822830 -2.208595 9.471694 0.000000 -0.000021 5.101518 4.885688 1.184071 -0.390218 0.000003 0.000001 5.101559 -1.660704 4.884448 -11.943711 -0.000000 -0.000000 11.655083 0.000000 0.000000 -0.000000 -2.625402 0.000024 11.175216 9.634476 -93.806563 0.463656 0.000031 -0.000010 10.434700 -51.728919 -33.911869 47.765623 -0.000008 0.000008 29.628437 15.359523 0.522136 49.986528 -0.000053 0.000019 22.857578 38.548106 -24.771867 -1.515399 -2.867319 -2.944260 3.959579 32.727627 -27.177449 37.651452 -0.000008 -0.000031 3.350418 -34.514821 10.148791 -58.095506 -0.000008 0.000000 3.756508 -23.028143 10.922417 -39.716020 -0.000003 0.000001 3.147350 -0.000000 0.000000 0.000000 -0.086779 -2.345276 10.030878 71.425235 -109.492953 -71.216559 -0.000015 -0.000023 4.061111 -11.548466 -66.047991 18.443703 -0.000019 -0.000004 3.248863 -12.048502 -66.047998 18.443727 -0.000012 0.000010 2.639719 -0.000002 0.000001 -0.000001 0.104085 -0.006763 9.502915 -96.931989 -76.412728 100.638616 -0.000011 0.000001 4.568722 -3.391215 -64.138987 6.206772 -0.000015 -0.000005 3.655012 -3.891227 -64.139035 6.206786 0.000009 -0.000022 2.741249 0.000004 0.000000 -0.000000 0.086754 2.267445 8.921715 68.823650 -95.952922 -59.852012 0.000011 0.000027 4.061090 3.443335 -63.783776 -7.135128 -0.000006 0.000026 3.654995 4.443365 -63.783776 -7.135176 -0.000007 0.000008 2.741253 -0.000002 0.000000 -0.000001 -0.173519 4.467293 7.976930 97.300402 -87.623773 -78.967587 0.000008 -0.000004 3.350395 8.461395 -58.566044 -18.543356 -0.000015 -0.000004 2.842766 10.461394 -58.566051 -18.543363 -0.000012 -0.000013 2.639727 0.000001 -0.000001 -0.000001 -0.000015 0.000002 0.000005 0.000001 0.000003 -0.000000 0.000011 -0.000003 0.000004 0.000001 0.000001 0.000002 2.625414 -0.000021 11.175230 -10.494321 90.525019 0.648785 0.000015 -0.000012 10.813633 41.387671 59.146925 39.350864 -0.000006 0.000008 28.724762 -12.135411 0.946688 41.612320 0.644352 0.328824 25.716171 -29.546469 13.368640 -11.035409 2.867308 -2.944275 3.959579 -32.129620 25.046106 40.507417 0.000000 0.000031 3.350403 29.959132 -10.891659 -50.771146 0.000015 0.000031 3.756500 19.848327 -10.492495 -34.618616 -0.000005 -0.000005 3.100021 -0.000001 -0.000000 0.000001 0.086800 -2.345263 10.030914 4.191853 73.083926 -3.990627 0.000019 0.000010 4.061108 -4.410411 51.471660 -10.166247 0.000000 -0.000029 3.248852 -4.910397 51.471698 -10.166240 0.000002 -0.000024 2.639713 0.000003 0.000001 0.000002 -0.104118 -0.006782 9.502949 18.453539 70.668948 14.213053 0.000028 0.000009 4.568729 -1.203952 50.342514 -3.624803 0.000012 0.000021 3.654966 -1.703963 50.343835 -3.624855 0.000010 0.000010 2.741241 -0.000000 0.000000 0.000002 -0.086766 2.267451 8.921688 44.200241 69.445764 44.982926 -0.000002 0.000023 4.061102 1.272174 52.626515 4.592837 0.000006 -0.000001 3.655008 2.272159 52.626512 4.592836 -0.000004 0.000005 2.741247 -0.000000 -0.000001 0.000002 0.173485 4.467262 7.977013 52.467799 61.273108 59.595853 0.000015 0.000019 3.350403 4.505532 50.628712 13.702714 0.000011 -0.000004 2.842758 6.505517 50.628658 13.702728 0.000010 -0.000001 2.639692 0.000000 -0.000000 -0.000002 0.000011 0.000008 0.000009 0.000000 -0.000001 0.000000 -0.000010 0.000007 -0.000003 -0.000002 -0.000002 0.000001 -11.289930 -0.000008 0.000019 -18.478602 6.347802 22.161696 -0.000000 0.000027 -38.200329 -1.000709 0.096659 5.173250 -0.000038 -0.000006 -39.900848 -17.136736 -1.743969 16.741320 -0.000041 -15.261683 0.000017 1.840201 1.163920 -15.456231 -0.000002 -7.370718 0.000003 -0.000001 0.000001 0.000001 -0.000001 0.000009 0.000000 -0.000001 0.000000 0.000001 0.000007 0.000000 -0.000003 -0.000000 -0.000000 0.000000 11.315620 -0.000021 0.000008 -7.337141 -17.582886 10.684458 -0.000014 -0.000054 -38.200329 1.634543 -0.539903 18.273772 -0.000046 -0.000052 -39.900841 7.928596 5.142394 31.049470 0.000002 -15.261705 0.000010 -1.030636 -1.595675 -20.636833 0.000004 -7.539992 -0.000001 0.000002 0.000001 0.000002 0.000017 0.000009 0.000002 -0.000001 0.000002 -0.000004 0.000003 -0.000001 -0.000003 0.000000 -0.000000 -0.000001 
